<svg xmlns="http://www.w3.org/2000/svg" version="1.1" xmlns:xlink="http://www.w3.org/1999/xlink" xmlns:svgjs="http://svgjs.dev/svgjs" width="1440" height="560" preserveAspectRatio="none" viewBox="0 0 1440 560"><g mask="url(&quot;#SvgjsMask1000&quot;)" fill="none"><rect width="1440" height="560" x="0" y="0" fill="#0e2a47"></rect><path d="M731.95 286.42L731.95 290.14L760.66 290.14L760.66 286.42zM754.06 288.28 a6.6 6.6 0 1 0 13.2 0 a6.6 6.6 0 1 0 -13.2 0zM727.25 313.79L725.82 317.24L741.39 323.69L742.82 320.24zM735.5 321.96 a6.6 6.6 0 1 0 13.2 0 a6.6 6.6 0 1 0 -13.2 0zM712.42 337.29L709.79 339.92L733.24 363.38L735.88 360.74zM727.96 362.06 a6.6 6.6 0 1 0 13.2 0 a6.6 6.6 0 1 0 -13.2 0zM689.74 353.32L686.3 354.75L692.47 369.65L695.91 368.22zM687.59 368.93 a6.6 6.6 0 1 0 13.2 0 a6.6 6.6 0 1 0 -13.2 0zM662.65 359.45L658.92 359.45L658.92 378.23L662.65 378.23zM654.18 378.23 a6.6 6.6 0 1 0 13.2 0 a6.6 6.6 0 1 0 -13.2 0zM635.27 354.75L631.83 353.32L623.35 373.77L626.8 375.2zM618.47 374.49 a6.6 6.6 0 1 0 13.2 0 a6.6 6.6 0 1 0 -13.2 0zM611.78 339.92L609.14 337.29L584.52 361.91L587.15 364.54zM579.24 363.23 a6.6 6.6 0 1 0 13.2 0 a6.6 6.6 0 1 0 -13.2 0zM595.74 317.24L594.32 313.79L574.76 321.9L576.19 325.34zM568.87 323.62 a6.6 6.6 0 1 0 13.2 0 a6.6 6.6 0 1 0 -13.2 0zM589.61 290.14L589.61 286.42L556.13 286.42L556.13 290.14zM549.53 288.28 a6.6 6.6 0 1 0 13.2 0 a6.6 6.6 0 1 0 -13.2 0zM594.32 262.77L595.74 259.32L567.15 247.48L565.72 250.92zM559.84 249.2 a6.6 6.6 0 1 0 13.2 0 a6.6 6.6 0 1 0 -13.2 0zM609.14 239.27L611.78 236.64L592.88 217.75L590.25 220.38zM584.96 219.06 a6.6 6.6 0 1 0 13.2 0 a6.6 6.6 0 1 0 -13.2 0zM631.83 223.24L635.27 221.82L624.84 196.64L621.4 198.07zM616.52 197.35 a6.6 6.6 0 1 0 13.2 0 a6.6 6.6 0 1 0 -13.2 0zM658.92 217.11L662.65 217.11L662.65 186.63L658.92 186.63zM654.18 186.63 a6.6 6.6 0 1 0 13.2 0 a6.6 6.6 0 1 0 -13.2 0zM686.3 221.82L689.74 223.24L695.58 209.14L692.14 207.72zM687.26 208.43 a6.6 6.6 0 1 0 13.2 0 a6.6 6.6 0 1 0 -13.2 0zM709.79 236.64L712.42 239.27L719.38 232.32L716.74 229.69zM711.46 231.01 a6.6 6.6 0 1 0 13.2 0 a6.6 6.6 0 1 0 -13.2 0zM725.82 259.32L727.25 262.77L743.3 256.12L741.87 252.68zM735.98 254.4 a6.6 6.6 0 1 0 13.2 0 a6.6 6.6 0 1 0 -13.2 0zM589.59 288.28 a71.19 71.19 0 1 0 142.38 0 a71.19 71.19 0 1 0 -142.38 0z" fill="#488fdb"></path><path d="M719.5 328.53 A70.1936 70.1936 0 0 1 596.63 319.14M596.63 319.14 A142.3872 142.3872 0 0 0 719.5 328.53" fill="#2672c3" fill-rule="nonzero"></path><path d="M682.42 347.31 a5.7 5.7 0 1 0 11.4 0 a5.7 5.7 0 1 0 -11.4 0zM698.84 271.38 a14.24 14.24 0 1 0 28.48 0 a14.24 14.24 0 1 0 -28.48 0zM634.76 245.62 a14.24 14.24 0 1 0 28.48 0 a14.24 14.24 0 1 0 -28.48 0zM610.52 263.25 a7.12 7.12 0 1 0 14.24 0 a7.12 7.12 0 1 0 -14.24 0zM596.47 311.66 a14.24 14.24 0 1 0 28.48 0 a14.24 14.24 0 1 0 -28.48 0zM694.91 323.81 a7.12 7.12 0 1 0 14.24 0 a7.12 7.12 0 1 0 -14.24 0zM639.35 314.34 a7.12 7.12 0 1 0 14.24 0 a7.12 7.12 0 1 0 -14.24 0zM633.92 342.85 a7.12 7.12 0 1 0 14.24 0 a7.12 7.12 0 1 0 -14.24 0zM659.32 354.93 a3.56 3.56 0 1 0 7.12 0 a3.56 3.56 0 1 0 -7.12 0zM676.83 252.59 a2.85 2.85 0 1 0 5.7 0 a2.85 2.85 0 1 0 -5.7 0z" fill="#2672c3" fill-rule="nonzero"></path><path d="M519.32 84.27L519.32 86.6L537.14 86.6L537.14 84.27zM533.01 85.43 a4.13 4.13 0 1 0 8.26 0 a4.13 4.13 0 1 0 -8.26 0zM516.38 101.38L515.49 103.53L528.41 108.88L529.3 106.73zM524.72 107.81 a4.13 4.13 0 1 0 8.26 0 a4.13 4.13 0 1 0 -8.26 0zM507.12 116.06L505.47 117.71L516.64 128.88L518.28 127.23zM513.33 128.05 a4.13 4.13 0 1 0 8.26 0 a4.13 4.13 0 1 0 -8.26 0zM492.94 126.08L490.79 126.97L497.63 143.48L499.78 142.59zM494.57 143.04 a4.13 4.13 0 1 0 8.26 0 a4.13 4.13 0 1 0 -8.26 0zM476.01 129.91L473.68 129.91L473.68 146.33L476.01 146.33zM470.71 146.33 a4.13 4.13 0 1 0 8.26 0 a4.13 4.13 0 1 0 -8.26 0zM458.9 126.97L456.74 126.08L452.13 137.23L454.28 138.13zM449.07 137.68 a4.13 4.13 0 1 0 8.26 0 a4.13 4.13 0 1 0 -8.26 0zM444.21 117.71L442.57 116.06L430.04 128.59L431.69 130.23zM426.74 129.41 a4.13 4.13 0 1 0 8.26 0 a4.13 4.13 0 1 0 -8.26 0zM434.19 103.53L433.3 101.38L424.03 105.22L424.92 107.37zM420.34 106.3 a4.13 4.13 0 1 0 8.26 0 a4.13 4.13 0 1 0 -8.26 0zM430.36 86.6L430.36 84.27L415.47 84.27L415.47 86.6zM411.34 85.43 a4.13 4.13 0 1 0 8.26 0 a4.13 4.13 0 1 0 -8.26 0zM433.3 69.49L434.19 67.34L429.03 65.2L428.14 67.35zM424.45 66.27 a4.13 4.13 0 1 0 8.26 0 a4.13 4.13 0 1 0 -8.26 0zM442.57 54.8L444.21 53.16L432.14 41.09L430.5 42.73zM427.19 41.91 a4.13 4.13 0 1 0 8.26 0 a4.13 4.13 0 1 0 -8.26 0zM456.74 44.78L458.9 43.89L453.07 29.83L450.92 30.72zM447.87 30.28 a4.13 4.13 0 1 0 8.26 0 a4.13 4.13 0 1 0 -8.26 0zM473.68 40.95L476.01 40.95L476.01 23.78L473.68 23.78zM470.71 23.78 a4.13 4.13 0 1 0 8.26 0 a4.13 4.13 0 1 0 -8.26 0zM490.79 43.89L492.94 44.78L496.97 35.07L494.81 34.17zM491.76 34.62 a4.13 4.13 0 1 0 8.26 0 a4.13 4.13 0 1 0 -8.26 0zM505.47 53.16L507.12 54.8L519.77 42.15L518.12 40.51zM514.82 41.33 a4.13 4.13 0 1 0 8.26 0 a4.13 4.13 0 1 0 -8.26 0zM515.49 67.34L516.38 69.49L530.28 63.73L529.39 61.58zM525.7 62.66 a4.13 4.13 0 1 0 8.26 0 a4.13 4.13 0 1 0 -8.26 0zM430.34 85.43 a44.5 44.5 0 1 0 89 0 a44.5 44.5 0 1 0 -89 0z" fill="#488fdb"></path><path d="M487.22 42.69 A43.496 43.496 0 0 1 505.74 117.46M505.74 117.46 A88.992 88.992 0 0 0 487.22 42.69" fill="#2672c3" fill-rule="nonzero"></path><path d="M490.3 65.22 a8.9 8.9 0 1 0 17.8 0 a8.9 8.9 0 1 0 -17.8 0zM430.64 85.94 a5.34 5.34 0 1 0 10.68 0 a5.34 5.34 0 1 0 -10.68 0zM439.14 60.81 a4.45 4.45 0 1 0 8.9 0 a4.45 4.45 0 1 0 -8.9 0zM447.87 114.11 a8.9 8.9 0 1 0 17.8 0 a8.9 8.9 0 1 0 -17.8 0zM506.51 102.38 a4.45 4.45 0 1 0 8.9 0 a4.45 4.45 0 1 0 -8.9 0zM457.18 89.66 a7.56 7.56 0 1 0 15.12 0 a7.56 7.56 0 1 0 -15.12 0zM455.08 51.75 a8.01 8.01 0 1 0 16.02 0 a8.01 8.01 0 1 0 -16.02 0zM479.96 49.19 a3.56 3.56 0 1 0 7.12 0 a3.56 3.56 0 1 0 -7.12 0zM487.66 82.66 a1.78 1.78 0 1 0 3.56 0 a1.78 1.78 0 1 0 -3.56 0zM491.75 111.13 a4 4 0 1 0 8 0 a4 4 0 1 0 -8 0z" fill="#2672c3" fill-rule="nonzero"></path><path d="M1394.5 226.54L1394.5 230.27L1425.26 230.27L1425.26 226.54zM1418.66 228.4 a6.6 6.6 0 1 0 13.2 0 a6.6 6.6 0 1 0 -13.2 0zM1389.79 253.92L1388.37 257.36L1408.65 265.76L1410.08 262.32zM1402.77 264.04 a6.6 6.6 0 1 0 13.2 0 a6.6 6.6 0 1 0 -13.2 0zM1374.97 277.41L1372.33 280.04L1394.2 301.91L1396.84 299.28zM1388.92 300.6 a6.6 6.6 0 1 0 13.2 0 a6.6 6.6 0 1 0 -13.2 0zM1352.28 293.44L1348.84 294.87L1360.79 323.71L1364.23 322.28zM1355.91 323 a6.6 6.6 0 1 0 13.2 0 a6.6 6.6 0 1 0 -13.2 0zM1325.19 299.57L1321.46 299.57L1321.46 321.7L1325.19 321.7zM1316.73 321.7 a6.6 6.6 0 1 0 13.2 0 a6.6 6.6 0 1 0 -13.2 0zM1297.81 294.87L1294.37 293.44L1282.77 321.45L1286.21 322.88zM1277.89 322.17 a6.6 6.6 0 1 0 13.2 0 a6.6 6.6 0 1 0 -13.2 0zM1274.32 280.04L1271.68 277.41L1256.77 292.32L1259.41 294.96zM1251.49 293.64 a6.6 6.6 0 1 0 13.2 0 a6.6 6.6 0 1 0 -13.2 0zM1258.29 257.36L1256.86 253.92L1243.72 259.36L1245.15 262.8zM1237.84 261.08 a6.6 6.6 0 1 0 13.2 0 a6.6 6.6 0 1 0 -13.2 0zM1252.16 230.27L1252.16 226.54L1239.52 226.54L1239.52 230.27zM1232.92 228.4 a6.6 6.6 0 1 0 13.2 0 a6.6 6.6 0 1 0 -13.2 0zM1256.86 202.89L1258.29 199.44L1235.97 190.2L1234.54 193.64zM1228.65 191.92 a6.6 6.6 0 1 0 13.2 0 a6.6 6.6 0 1 0 -13.2 0zM1271.68 179.4L1274.32 176.76L1264.99 167.43L1262.35 170.06zM1257.07 168.74 a6.6 6.6 0 1 0 13.2 0 a6.6 6.6 0 1 0 -13.2 0zM1294.37 163.36L1297.81 161.94L1284.67 130.21L1281.23 131.64zM1276.35 130.92 a6.6 6.6 0 1 0 13.2 0 a6.6 6.6 0 1 0 -13.2 0zM1321.46 157.23L1325.19 157.23L1325.19 139.16L1321.46 139.16zM1316.73 139.16 a6.6 6.6 0 1 0 13.2 0 a6.6 6.6 0 1 0 -13.2 0zM1348.84 161.94L1352.28 163.36L1360.79 142.83L1357.35 141.4zM1352.47 142.11 a6.6 6.6 0 1 0 13.2 0 a6.6 6.6 0 1 0 -13.2 0zM1372.33 176.76L1374.97 179.4L1391.61 162.75L1388.98 160.11zM1383.7 161.43 a6.6 6.6 0 1 0 13.2 0 a6.6 6.6 0 1 0 -13.2 0zM1388.37 199.44L1389.79 202.89L1416.97 191.63L1415.55 188.19zM1409.66 189.91 a6.6 6.6 0 1 0 13.2 0 a6.6 6.6 0 1 0 -13.2 0zM1252.14 228.4 a71.19 71.19 0 1 0 142.38 0 a71.19 71.19 0 1 0 -142.38 0z" fill="#488fdb"></path><path d="M1281.26 170.97 A70.1936 70.1936 0 0 1 1394.09 220.54M1394.09 220.54 A142.3872 142.3872 0 0 0 1281.26 170.97" fill="#2672c3" fill-rule="nonzero"></path><path d="M1347.25 201.05 a14.24 14.24 0 1 0 28.48 0 a14.24 14.24 0 1 0 -28.48 0zM1295.43 242.42 a14.24 14.24 0 1 0 28.48 0 a14.24 14.24 0 1 0 -28.48 0zM1363.75 234.85 a6.41 6.41 0 1 0 12.82 0 a6.41 6.41 0 1 0 -12.82 0zM1278.72 181.98 a14.24 14.24 0 1 0 28.48 0 a14.24 14.24 0 1 0 -28.48 0zM1261.56 216.77 a11.39 11.39 0 1 0 22.78 0 a11.39 11.39 0 1 0 -22.78 0zM1332.57 222.78 a4.27 4.27 0 1 0 8.54 0 a4.27 4.27 0 1 0 -8.54 0zM1364.82 261.35 a5.7 5.7 0 1 0 11.4 0 a5.7 5.7 0 1 0 -11.4 0zM1316.13 201.99 a6.41 6.41 0 1 0 12.82 0 a6.41 6.41 0 1 0 -12.82 0zM1274.54 277.18 a6.41 6.41 0 1 0 12.82 0 a6.41 6.41 0 1 0 -12.82 0zM1359.55 283.3 a2.85 2.85 0 1 0 5.7 0 a2.85 2.85 0 1 0 -5.7 0z" fill="#2672c3" fill-rule="nonzero"></path><path d="M1153.75 65.58L1153.75 67.45L1161.91 67.45L1161.91 65.58zM1158.61 66.51 a3.3 3.3 0 1 0 6.6 0 a3.3 3.3 0 1 0 -6.6 0zM1151.39 79.27L1150.68 80.99L1166.7 87.63L1167.41 85.91zM1163.76 86.77 a3.3 3.3 0 1 0 6.6 0 a3.3 3.3 0 1 0 -6.6 0zM1143.98 91.02L1142.67 92.34L1147.93 97.6L1149.25 96.29zM1145.29 96.94 a3.3 3.3 0 1 0 6.6 0 a3.3 3.3 0 1 0 -6.6 0zM1132.64 99.03L1130.92 99.75L1134.42 108.19L1136.14 107.48zM1131.98 107.83 a3.3 3.3 0 1 0 6.6 0 a3.3 3.3 0 1 0 -6.6 0zM1119.09 102.1L1117.23 102.1L1117.23 111.05L1119.09 111.05zM1114.86 111.05 a3.3 3.3 0 1 0 6.6 0 a3.3 3.3 0 1 0 -6.6 0zM1105.41 99.75L1103.68 99.03L1097.33 114.37L1099.05 115.08zM1094.89 114.73 a3.3 3.3 0 1 0 6.6 0 a3.3 3.3 0 1 0 -6.6 0zM1093.66 92.34L1092.34 91.02L1087.26 96.1L1088.58 97.41zM1084.62 96.75 a3.3 3.3 0 1 0 6.6 0 a3.3 3.3 0 1 0 -6.6 0zM1085.64 80.99L1084.93 79.27L1080.61 81.06L1081.32 82.78zM1077.66 81.92 a3.3 3.3 0 1 0 6.6 0 a3.3 3.3 0 1 0 -6.6 0zM1082.58 67.45L1082.58 65.58L1070.15 65.58L1070.15 67.45zM1066.85 66.51 a3.3 3.3 0 1 0 6.6 0 a3.3 3.3 0 1 0 -6.6 0zM1084.93 53.76L1085.64 52.04L1079.18 49.36L1078.47 51.08zM1075.53 50.22 a3.3 3.3 0 1 0 6.6 0 a3.3 3.3 0 1 0 -6.6 0zM1092.34 42.01L1093.66 40.69L1087.31 34.34L1085.99 35.66zM1083.35 35 a3.3 3.3 0 1 0 6.6 0 a3.3 3.3 0 1 0 -6.6 0zM1103.68 34L1105.41 33.28L1099.04 17.91L1097.32 18.62zM1094.88 18.27 a3.3 3.3 0 1 0 6.6 0 a3.3 3.3 0 1 0 -6.6 0zM1117.23 30.93L1119.09 30.93L1119.09 21.55L1117.23 21.55zM1114.86 21.55 a3.3 3.3 0 1 0 6.6 0 a3.3 3.3 0 1 0 -6.6 0zM1130.92 33.28L1132.64 34L1138.24 20.47L1136.52 19.76zM1134.08 20.11 a3.3 3.3 0 1 0 6.6 0 a3.3 3.3 0 1 0 -6.6 0zM1142.67 40.69L1143.98 42.01L1154.95 31.04L1153.63 29.73zM1150.99 30.39 a3.3 3.3 0 1 0 6.6 0 a3.3 3.3 0 1 0 -6.6 0zM1150.68 52.04L1151.39 53.76L1160.58 49.95L1159.86 48.23zM1156.92 49.09 a3.3 3.3 0 1 0 6.6 0 a3.3 3.3 0 1 0 -6.6 0zM1082.56 66.51 a35.6 35.6 0 1 0 71.2 0 a35.6 35.6 0 1 0 -71.2 0z" fill="#488fdb"></path><path d="M1152.92 58.82 A34.5968 34.5968 0 0 1 1107.52 100.48M1107.52 100.48 A71.1936 71.1936 0 0 0 1152.92 58.82" fill="#2672c3" fill-rule="nonzero"></path><path d="M1130.26 93.52 a3.92 3.92 0 1 0 7.84 0 a3.92 3.92 0 1 0 -7.84 0zM1088.52 58.27 a7.12 7.12 0 1 0 14.24 0 a7.12 7.12 0 1 0 -14.24 0zM1106.21 46.2 a5.7 5.7 0 1 0 11.4 0 a5.7 5.7 0 1 0 -11.4 0zM1116.01 90.5 a3.56 3.56 0 1 0 7.12 0 a3.56 3.56 0 1 0 -7.12 0zM1130.62 74.81 a7.12 7.12 0 1 0 14.24 0 a7.12 7.12 0 1 0 -14.24 0zM1113.92 77.65 a2.49 2.49 0 1 0 4.98 0 a2.49 2.49 0 1 0 -4.98 0zM1124.18 41.15 a5.7 5.7 0 1 0 11.4 0 a5.7 5.7 0 1 0 -11.4 0zM1099.24 74.13 a2.85 2.85 0 1 0 5.7 0 a2.85 2.85 0 1 0 -5.7 0zM1110.79 62.06 a2.85 2.85 0 1 0 5.7 0 a2.85 2.85 0 1 0 -5.7 0zM1149.74 66.5 a1.78 1.78 0 1 0 3.56 0 a1.78 1.78 0 1 0 -3.56 0z" fill="#2672c3" fill-rule="nonzero"></path><path d="M279.26 431.06L279.26 434.79L303.56 434.79L303.56 431.06zM296.96 432.93 a6.6 6.6 0 1 0 13.2 0 a6.6 6.6 0 1 0 -13.2 0zM274.55 458.44L273.13 461.88L304.84 475.02L306.26 471.57zM298.95 473.3 a6.6 6.6 0 1 0 13.2 0 a6.6 6.6 0 1 0 -13.2 0zM259.73 481.93L257.1 484.57L281.82 509.3L284.46 506.66zM276.54 507.98 a6.6 6.6 0 1 0 13.2 0 a6.6 6.6 0 1 0 -13.2 0zM237.05 497.97L233.6 499.39L243.36 522.94L246.8 521.52zM238.48 522.23 a6.6 6.6 0 1 0 13.2 0 a6.6 6.6 0 1 0 -13.2 0zM209.95 504.1L206.23 504.1L206.23 526.76L209.95 526.76zM201.49 526.76 a6.6 6.6 0 1 0 13.2 0 a6.6 6.6 0 1 0 -13.2 0zM182.58 499.39L179.13 497.97L173.89 510.61L177.34 512.04zM169.01 511.33 a6.6 6.6 0 1 0 13.2 0 a6.6 6.6 0 1 0 -13.2 0zM159.08 484.57L156.45 481.93L135.62 502.77L138.25 505.4zM130.33 504.08 a6.6 6.6 0 1 0 13.2 0 a6.6 6.6 0 1 0 -13.2 0zM143.05 461.88L141.62 458.44L130.87 462.9L132.3 466.34zM124.98 464.62 a6.6 6.6 0 1 0 13.2 0 a6.6 6.6 0 1 0 -13.2 0zM136.92 434.79L136.92 431.06L107.56 431.06L107.56 434.79zM100.96 432.93 a6.6 6.6 0 1 0 13.2 0 a6.6 6.6 0 1 0 -13.2 0zM141.62 407.41L143.05 403.97L125.81 396.83L124.38 400.27zM118.5 398.55 a6.6 6.6 0 1 0 13.2 0 a6.6 6.6 0 1 0 -13.2 0zM156.45 383.92L159.08 381.29L144.88 367.08L142.24 369.72zM136.96 368.4 a6.6 6.6 0 1 0 13.2 0 a6.6 6.6 0 1 0 -13.2 0zM179.13 367.89L182.58 366.46L172.08 341.13L168.64 342.56zM163.76 341.84 a6.6 6.6 0 1 0 13.2 0 a6.6 6.6 0 1 0 -13.2 0zM206.23 361.76L209.95 361.76L209.95 344.4L206.23 344.4zM201.49 344.4 a6.6 6.6 0 1 0 13.2 0 a6.6 6.6 0 1 0 -13.2 0zM233.6 366.46L237.05 367.89L244.38 350.19L240.93 348.76zM236.06 349.47 a6.6 6.6 0 1 0 13.2 0 a6.6 6.6 0 1 0 -13.2 0zM257.1 381.29L259.73 383.92L270.01 373.64L267.38 371zM262.09 372.32 a6.6 6.6 0 1 0 13.2 0 a6.6 6.6 0 1 0 -13.2 0zM273.13 403.97L274.55 407.41L302.73 395.74L301.31 392.3zM295.42 394.02 a6.6 6.6 0 1 0 13.2 0 a6.6 6.6 0 1 0 -13.2 0zM136.9 432.93 a71.19 71.19 0 1 0 142.38 0 a71.19 71.19 0 1 0 -142.38 0z" fill="#488fdb"></path><path d="M262.35 386.84 A70.1936 70.1936 0 0 1 221.01 502.94M221.01 502.94 A142.3872 142.3872 0 0 0 262.35 386.84" fill="#2672c3" fill-rule="nonzero"></path><path d="M156.96 433.64 a14.24 14.24 0 1 0 28.48 0 a14.24 14.24 0 1 0 -28.48 0zM155.82 479.51 a2.85 2.85 0 1 0 5.7 0 a2.85 2.85 0 1 0 -5.7 0zM235.37 420.8 a14.24 14.24 0 1 0 28.48 0 a14.24 14.24 0 1 0 -28.48 0zM167.52 395.05 a10.68 10.68 0 1 0 21.36 0 a10.68 10.68 0 1 0 -21.36 0zM232.85 452.4 a4.98 4.98 0 1 0 9.96 0 a4.98 4.98 0 1 0 -9.96 0zM179.27 485.05 a14.24 14.24 0 1 0 28.48 0 a14.24 14.24 0 1 0 -28.48 0zM221.83 480.93 a3.56 3.56 0 1 0 7.12 0 a3.56 3.56 0 1 0 -7.12 0zM200.88 381.27 a12.81 12.81 0 1 0 25.62 0 a12.81 12.81 0 1 0 -25.62 0zM263.2 462.77 a4.27 4.27 0 1 0 8.54 0 a4.27 4.27 0 1 0 -8.54 0zM200.11 434.01 a5.7 5.7 0 1 0 11.4 0 a5.7 5.7 0 1 0 -11.4 0z" fill="#2672c3" fill-rule="nonzero"></path><path d="M995.93 188.96L995.93 190.83L1007.19 190.83L1007.19 188.96zM1003.89 189.89 a3.3 3.3 0 1 0 6.6 0 a3.3 3.3 0 1 0 -6.6 0zM993.58 202.65L992.87 204.37L1006.01 209.82L1006.73 208.1zM1003.07 208.96 a3.3 3.3 0 1 0 6.6 0 a3.3 3.3 0 1 0 -6.6 0zM986.17 214.4L984.85 215.72L993.12 223.99L994.44 222.67zM990.48 223.33 a3.3 3.3 0 1 0 6.6 0 a3.3 3.3 0 1 0 -6.6 0zM974.82 222.41L973.1 223.13L976.47 231.26L978.19 230.54zM974.03 230.9 a3.3 3.3 0 1 0 6.6 0 a3.3 3.3 0 1 0 -6.6 0zM961.28 225.48L959.41 225.48L959.41 232.57L961.28 232.57zM957.05 232.57 a3.3 3.3 0 1 0 6.6 0 a3.3 3.3 0 1 0 -6.6 0zM947.59 223.13L945.87 222.41L942.03 231.67L943.75 232.38zM939.59 232.03 a3.3 3.3 0 1 0 6.6 0 a3.3 3.3 0 1 0 -6.6 0zM935.84 215.72L934.52 214.4L922.94 225.98L924.26 227.3zM920.3 226.64 a3.3 3.3 0 1 0 6.6 0 a3.3 3.3 0 1 0 -6.6 0zM927.83 204.37L927.11 202.65L917.72 206.54L918.43 208.27zM914.77 207.4 a3.3 3.3 0 1 0 6.6 0 a3.3 3.3 0 1 0 -6.6 0zM924.76 190.83L924.76 188.96L914.98 188.96L914.98 190.83zM911.68 189.89 a3.3 3.3 0 1 0 6.6 0 a3.3 3.3 0 1 0 -6.6 0zM927.11 177.14L927.83 175.42L912.21 168.95L911.5 170.67zM908.56 169.81 a3.3 3.3 0 1 0 6.6 0 a3.3 3.3 0 1 0 -6.6 0zM934.52 165.39L935.84 164.07L929.19 157.42L927.87 158.74zM925.23 158.08 a3.3 3.3 0 1 0 6.6 0 a3.3 3.3 0 1 0 -6.6 0zM945.87 157.38L947.59 156.66L944.34 148.81L942.61 149.52zM940.18 149.17 a3.3 3.3 0 1 0 6.6 0 a3.3 3.3 0 1 0 -6.6 0zM959.41 154.31L961.28 154.31L961.28 138.3L959.41 138.3zM957.05 138.3 a3.3 3.3 0 1 0 6.6 0 a3.3 3.3 0 1 0 -6.6 0zM973.1 156.66L974.82 157.38L978.54 148.4L976.82 147.69zM974.38 148.05 a3.3 3.3 0 1 0 6.6 0 a3.3 3.3 0 1 0 -6.6 0zM984.85 164.07L986.17 165.39L991.14 160.41L989.83 159.1zM987.19 159.75 a3.3 3.3 0 1 0 6.6 0 a3.3 3.3 0 1 0 -6.6 0zM992.87 175.42L993.58 177.14L999.21 174.8L998.5 173.08zM995.56 173.94 a3.3 3.3 0 1 0 6.6 0 a3.3 3.3 0 1 0 -6.6 0zM924.75 189.89 a35.6 35.6 0 1 0 71.2 0 a35.6 35.6 0 1 0 -71.2 0z" fill="#488fdb"></path><path d="M925.08 194.73 A34.5968 34.5968 0 0 1 973.72 156.91M973.72 156.91 A71.1936 71.1936 0 0 0 925.08 194.73" fill="#2672c3" fill-rule="nonzero"></path><path d="M966.37 181.98 a7.12 7.12 0 1 0 14.24 0 a7.12 7.12 0 1 0 -14.24 0zM940.06 174.63 a7.12 7.12 0 1 0 14.24 0 a7.12 7.12 0 1 0 -14.24 0zM966.03 201.15 a4.98 4.98 0 1 0 9.96 0 a4.98 4.98 0 1 0 -9.96 0zM988.14 175.11 a2.14 2.14 0 1 0 4.28 0 a2.14 2.14 0 1 0 -4.28 0zM956.51 220.91 a4.27 4.27 0 1 0 8.54 0 a4.27 4.27 0 1 0 -8.54 0zM982.62 205.31 a2.85 2.85 0 1 0 5.7 0 a2.85 2.85 0 1 0 -5.7 0zM943.09 198.23 a7.12 7.12 0 1 0 14.24 0 a7.12 7.12 0 1 0 -14.24 0zM964.54 163.49 a4.63 4.63 0 1 0 9.26 0 a4.63 4.63 0 1 0 -9.26 0zM931.39 187.86 a3.56 3.56 0 1 0 7.12 0 a3.56 3.56 0 1 0 -7.12 0zM972.37 220.4 a1.78 1.78 0 1 0 3.56 0 a1.78 1.78 0 1 0 -3.56 0z" fill="#2672c3" fill-rule="nonzero"></path><path d="M1190.97 476.96L1190.97 479.29L1196.52 479.29L1196.52 476.96zM1192.39 478.12 a4.13 4.13 0 1 0 8.26 0 a4.13 4.13 0 1 0 -8.26 0zM1188.03 494.07L1187.14 496.22L1193.36 498.8L1194.25 496.64zM1189.67 497.72 a4.13 4.13 0 1 0 8.26 0 a4.13 4.13 0 1 0 -8.26 0zM1178.76 508.75L1177.12 510.4L1188.54 521.83L1190.19 520.18zM1185.24 521 a4.13 4.13 0 1 0 8.26 0 a4.13 4.13 0 1 0 -8.26 0zM1164.59 518.77L1162.43 519.66L1169.48 536.67L1171.63 535.78zM1166.43 536.23 a4.13 4.13 0 1 0 8.26 0 a4.13 4.13 0 1 0 -8.26 0zM1147.65 522.6L1145.32 522.6L1145.32 536.45L1147.65 536.45zM1142.36 536.45 a4.13 4.13 0 1 0 8.26 0 a4.13 4.13 0 1 0 -8.26 0zM1130.54 519.66L1128.39 518.77L1123.12 531.49L1125.27 532.39zM1120.07 531.94 a4.13 4.13 0 1 0 8.26 0 a4.13 4.13 0 1 0 -8.26 0zM1115.86 510.4L1114.21 508.75L1101.23 521.73L1102.88 523.38zM1097.92 522.56 a4.13 4.13 0 1 0 8.26 0 a4.13 4.13 0 1 0 -8.26 0zM1105.84 496.22L1104.95 494.07L1086.33 501.78L1087.22 503.93zM1082.65 502.86 a4.13 4.13 0 1 0 8.26 0 a4.13 4.13 0 1 0 -8.26 0zM1102.01 479.29L1102.01 476.96L1080.03 476.96L1080.03 479.29zM1075.9 478.12 a4.13 4.13 0 1 0 8.26 0 a4.13 4.13 0 1 0 -8.26 0zM1104.95 462.18L1105.84 460.02L1093.97 455.11L1093.08 457.26zM1089.39 456.18 a4.13 4.13 0 1 0 8.26 0 a4.13 4.13 0 1 0 -8.26 0zM1114.21 447.49L1115.86 445.85L1101.46 431.44L1099.81 433.09zM1096.5 432.27 a4.13 4.13 0 1 0 8.26 0 a4.13 4.13 0 1 0 -8.26 0zM1128.39 437.47L1130.54 436.58L1127.12 428.31L1124.97 429.21zM1121.91 428.76 a4.13 4.13 0 1 0 8.26 0 a4.13 4.13 0 1 0 -8.26 0zM1145.32 433.64L1147.65 433.64L1147.65 416.74L1145.32 416.74zM1142.36 416.74 a4.13 4.13 0 1 0 8.26 0 a4.13 4.13 0 1 0 -8.26 0zM1162.43 436.58L1164.59 437.47L1171.06 421.85L1168.91 420.96zM1165.85 421.41 a4.13 4.13 0 1 0 8.26 0 a4.13 4.13 0 1 0 -8.26 0zM1177.12 445.85L1178.76 447.49L1191 435.25L1189.36 433.61zM1186.05 434.43 a4.13 4.13 0 1 0 8.26 0 a4.13 4.13 0 1 0 -8.26 0zM1187.14 460.02L1188.03 462.18L1195.82 458.95L1194.93 456.8zM1191.24 457.88 a4.13 4.13 0 1 0 8.26 0 a4.13 4.13 0 1 0 -8.26 0zM1101.99 478.12 a44.5 44.5 0 1 0 89 0 a44.5 44.5 0 1 0 -89 0z" fill="#488fdb"></path><path d="M1189.08 491 A43.496 43.496 0 0 1 1114.11 508.64M1114.11 508.64 A88.992 88.992 0 0 0 1189.08 491" fill="#2672c3" fill-rule="nonzero"></path><path d="M1120.51 503.65 a8.9 8.9 0 1 0 17.8 0 a8.9 8.9 0 1 0 -17.8 0zM1142.73 444.19 a8.9 8.9 0 1 0 17.8 0 a8.9 8.9 0 1 0 -17.8 0zM1115.77 459.36 a8.9 8.9 0 1 0 17.8 0 a8.9 8.9 0 1 0 -17.8 0zM1177.43 505.16 a1.78 1.78 0 1 0 3.56 0 a1.78 1.78 0 1 0 -3.56 0zM1164.84 458.71 a5.34 5.34 0 1 0 10.68 0 a5.34 5.34 0 1 0 -10.68 0zM1141.96 464.8 a2.22 2.22 0 1 0 4.44 0 a2.22 2.22 0 1 0 -4.44 0zM1103.68 488.85 a2.67 2.67 0 1 0 5.34 0 a2.67 2.67 0 1 0 -5.34 0zM1154.07 488.52 a8.9 8.9 0 1 0 17.8 0 a8.9 8.9 0 1 0 -17.8 0zM1123.95 483.37 a2.67 2.67 0 1 0 5.34 0 a2.67 2.67 0 1 0 -5.34 0zM1145.2 514.39 a7.12 7.12 0 1 0 14.24 0 a7.12 7.12 0 1 0 -14.24 0z" fill="#2672c3" fill-rule="nonzero"></path><path d="M301.41 107.55L301.41 109.42L310.51 109.42L310.51 107.55zM307.21 108.49 a3.3 3.3 0 1 0 6.6 0 a3.3 3.3 0 1 0 -6.6 0zM299.06 121.24L298.35 122.96L310.13 127.85L310.85 126.13zM307.19 126.99 a3.3 3.3 0 1 0 6.6 0 a3.3 3.3 0 1 0 -6.6 0zM291.65 132.99L290.33 134.31L301.02 145L302.34 143.68zM298.38 144.34 a3.3 3.3 0 1 0 6.6 0 a3.3 3.3 0 1 0 -6.6 0zM280.31 141.01L278.58 141.72L284.29 155.48L286.01 154.77zM281.85 155.13 a3.3 3.3 0 1 0 6.6 0 a3.3 3.3 0 1 0 -6.6 0zM266.76 144.07L264.89 144.07L264.89 159.3L266.76 159.3zM262.53 159.3 a3.3 3.3 0 1 0 6.6 0 a3.3 3.3 0 1 0 -6.6 0zM253.07 141.72L251.35 141.01L247.13 151.2L248.85 151.91zM244.69 151.55 a3.3 3.3 0 1 0 6.6 0 a3.3 3.3 0 1 0 -6.6 0zM241.32 134.31L240.01 132.99L236.77 136.22L238.09 137.54zM234.13 136.88 a3.3 3.3 0 1 0 6.6 0 a3.3 3.3 0 1 0 -6.6 0zM233.31 122.96L232.59 121.24L217.94 127.31L218.65 129.03zM215 128.17 a3.3 3.3 0 1 0 6.6 0 a3.3 3.3 0 1 0 -6.6 0zM230.24 109.42L230.24 107.55L215.25 107.55L215.25 109.42zM211.95 108.49 a3.3 3.3 0 1 0 6.6 0 a3.3 3.3 0 1 0 -6.6 0zM232.59 95.73L233.31 94.01L228.42 91.98L227.71 93.71zM224.76 92.84 a3.3 3.3 0 1 0 6.6 0 a3.3 3.3 0 1 0 -6.6 0zM240.01 83.98L241.32 82.67L235.37 76.71L234.05 78.03zM231.41 77.37 a3.3 3.3 0 1 0 6.6 0 a3.3 3.3 0 1 0 -6.6 0zM251.35 75.97L253.07 75.25L247.56 61.96L245.84 62.67zM243.4 62.32 a3.3 3.3 0 1 0 6.6 0 a3.3 3.3 0 1 0 -6.6 0zM264.89 72.9L266.76 72.9L266.76 55.95L264.89 55.95zM262.53 55.95 a3.3 3.3 0 1 0 6.6 0 a3.3 3.3 0 1 0 -6.6 0zM278.58 75.25L280.31 75.97L284.74 65.27L283.02 64.56zM280.58 64.91 a3.3 3.3 0 1 0 6.6 0 a3.3 3.3 0 1 0 -6.6 0zM290.33 82.67L291.65 83.98L303.92 71.71L302.6 70.4zM299.96 71.06 a3.3 3.3 0 1 0 6.6 0 a3.3 3.3 0 1 0 -6.6 0zM298.35 94.01L299.06 95.73L303.36 93.95L302.64 92.23zM299.7 93.09 a3.3 3.3 0 1 0 6.6 0 a3.3 3.3 0 1 0 -6.6 0zM230.23 108.49 a35.6 35.6 0 1 0 71.2 0 a35.6 35.6 0 1 0 -71.2 0z" fill="#488fdb"></path><path d="M246.07 78.87 A34.5968 34.5968 0 0 1 301.34 106.11M301.34 106.11 A71.1936 71.1936 0 0 0 246.07 78.87" fill="#2672c3" fill-rule="nonzero"></path><path d="M273.43 135.17 a5.7 5.7 0 1 0 11.4 0 a5.7 5.7 0 1 0 -11.4 0zM260.77 86.96 a7.12 7.12 0 1 0 14.24 0 a7.12 7.12 0 1 0 -14.24 0zM281.01 94.15 a6.41 6.41 0 1 0 12.82 0 a6.41 6.41 0 1 0 -12.82 0zM232.02 100.5 a7.12 7.12 0 1 0 14.24 0 a7.12 7.12 0 1 0 -14.24 0zM240.57 122.99 a7.12 7.12 0 1 0 14.24 0 a7.12 7.12 0 1 0 -14.24 0zM279.11 113.08 a5.34 5.34 0 1 0 10.68 0 a5.34 5.34 0 1 0 -10.68 0zM262.81 107.01 a4.98 4.98 0 1 0 9.96 0 a4.98 4.98 0 1 0 -9.96 0zM268.55 121.95 a2.49 2.49 0 1 0 4.98 0 a2.49 2.49 0 1 0 -4.98 0zM260.83 138.98 a2.85 2.85 0 1 0 5.7 0 a2.85 2.85 0 1 0 -5.7 0zM251.8 108.03 a1.42 1.42 0 1 0 2.84 0 a1.42 1.42 0 1 0 -2.84 0z" fill="#2672c3" fill-rule="nonzero"></path><path d="M947.84 430.38L947.84 433.18L964.65 433.18L964.65 430.38zM959.7 431.78 a4.95 4.95 0 1 0 9.9 0 a4.95 4.95 0 1 0 -9.9 0zM944.31 450.91L943.24 453.5L955.6 458.62L956.67 456.03zM951.19 457.33 a4.95 4.95 0 1 0 9.9 0 a4.95 4.95 0 1 0 -9.9 0zM933.19 468.53L931.22 470.51L942.69 481.99L944.67 480.01zM938.73 481 a4.95 4.95 0 1 0 9.9 0 a4.95 4.95 0 1 0 -9.9 0zM916.18 480.56L913.6 481.63L918.37 493.16L920.95 492.09zM914.71 492.62 a4.95 4.95 0 1 0 9.9 0 a4.95 4.95 0 1 0 -9.9 0zM895.86 485.16L893.06 485.16L893.06 500.93L895.86 500.93zM889.51 500.93 a4.95 4.95 0 1 0 9.9 0 a4.95 4.95 0 1 0 -9.9 0zM875.33 481.63L872.74 480.56L867.96 492.12L870.54 493.18zM864.3 492.65 a4.95 4.95 0 1 0 9.9 0 a4.95 4.95 0 1 0 -9.9 0zM857.71 470.51L855.73 468.53L843.69 480.58L845.66 482.55zM839.73 481.56 a4.95 4.95 0 1 0 9.9 0 a4.95 4.95 0 1 0 -9.9 0zM845.68 453.5L844.61 450.91L828.06 457.77L829.13 460.35zM823.65 459.06 a4.95 4.95 0 1 0 9.9 0 a4.95 4.95 0 1 0 -9.9 0zM841.08 433.18L841.08 430.38L818.46 430.38L818.46 433.18zM813.51 431.78 a4.95 4.95 0 1 0 9.9 0 a4.95 4.95 0 1 0 -9.9 0zM844.61 412.64L845.68 410.06L832.39 404.55L831.32 407.14zM826.9 405.85 a4.95 4.95 0 1 0 9.9 0 a4.95 4.95 0 1 0 -9.9 0zM855.73 395.02L857.71 393.05L850.13 385.47L848.16 387.45zM844.19 386.46 a4.95 4.95 0 1 0 9.9 0 a4.95 4.95 0 1 0 -9.9 0zM872.74 383L875.33 381.93L869.31 367.42L866.73 368.49zM863.07 367.95 a4.95 4.95 0 1 0 9.9 0 a4.95 4.95 0 1 0 -9.9 0zM893.06 378.4L895.86 378.4L895.86 359.2L893.06 359.2zM889.51 359.2 a4.95 4.95 0 1 0 9.9 0 a4.95 4.95 0 1 0 -9.9 0zM913.6 381.93L916.18 383L923.67 364.92L921.08 363.85zM917.43 364.38 a4.95 4.95 0 1 0 9.9 0 a4.95 4.95 0 1 0 -9.9 0zM931.22 393.05L933.19 395.02L947.19 381.02L945.22 379.05zM941.25 380.03 a4.95 4.95 0 1 0 9.9 0 a4.95 4.95 0 1 0 -9.9 0zM943.24 410.06L944.31 412.64L957.2 407.3L956.13 404.72zM951.71 406.01 a4.95 4.95 0 1 0 9.9 0 a4.95 4.95 0 1 0 -9.9 0zM841.06 431.78 a53.4 53.4 0 1 0 106.8 0 a53.4 53.4 0 1 0 -106.8 0z" fill="#488fdb"></path><path d="M947.85 432.24 A52.3952 52.3952 0 0 1 867.46 477.84M867.46 477.84 A106.7904 106.7904 0 0 0 947.85 432.24" fill="#2672c3" fill-rule="nonzero"></path><path d="M841.65 424.52 a7.48 7.48 0 1 0 14.96 0 a7.48 7.48 0 1 0 -14.96 0zM920.71 390.64 a2.67 2.67 0 1 0 5.34 0 a2.67 2.67 0 1 0 -5.34 0zM870.68 435.14 a10.68 10.68 0 1 0 21.36 0 a10.68 10.68 0 1 0 -21.36 0zM920.63 413.48 a10.68 10.68 0 1 0 21.36 0 a10.68 10.68 0 1 0 -21.36 0zM881.87 481.13 a2.67 2.67 0 1 0 5.34 0 a2.67 2.67 0 1 0 -5.34 0zM860.26 406.57 a6.94 6.94 0 1 0 13.88 0 a6.94 6.94 0 1 0 -13.88 0zM891.04 465.3 a8.01 8.01 0 1 0 16.02 0 a8.01 8.01 0 1 0 -16.02 0zM864.72 465.45 a6.94 6.94 0 1 0 13.88 0 a6.94 6.94 0 1 0 -13.88 0zM887.68 388.91 a10.15 10.15 0 1 0 20.3 0 a10.15 10.15 0 1 0 -20.3 0zM906.83 443.84 a6.94 6.94 0 1 0 13.88 0 a6.94 6.94 0 1 0 -13.88 0z" fill="#2672c3" fill-rule="nonzero"></path></g><defs><mask id="SvgjsMask1000"><rect width="1440" height="560" fill="#ffffff"></rect></mask></defs></svg>